<svg width="417" height="150" viewBox="0 0 417 150" fill="none" xmlns="http://www.w3.org/2000/svg">
<path d="M117.405 122.152C111.183 122.152 106.765 120.635 104.153 117.601C101.541 114.566 100.159 109.669 100.005 102.908V64.9385H90.6133L91.0166 58.6006L99.9473 57.7939L103.231 43.332L109.569 43.1016V57.7939H127.143V64.9385H109.569V101.18C109.569 105.981 110.299 109.361 111.759 111.32C113.218 113.279 115.715 114.259 119.249 114.259C120.517 114.259 123.263 113.951 127.488 113.337L127.892 120.942C123.321 121.749 119.825 122.152 117.405 122.152ZM156.182 114.547C160.753 114.547 164.767 113.299 168.224 110.802C171.719 108.267 173.966 104.867 174.965 100.604V89.9443C174.773 89.9443 173.601 90.0404 171.45 90.2324C169.338 90.4245 167.955 90.5397 167.302 90.5781C158.966 91.3079 153.147 92.6715 149.844 94.6689C146.579 96.6663 144.946 99.8737 144.946 104.291C144.946 107.671 145.945 110.226 147.942 111.954C149.94 113.683 152.686 114.547 156.182 114.547ZM177.097 121C176.521 118.542 175.964 115.891 175.426 113.049C171.93 116.544 168.646 118.964 165.573 120.309C162.5 121.653 158.89 122.325 154.741 122.325C148.826 122.325 144.063 120.789 140.452 117.716C136.88 114.604 135.094 110.149 135.094 104.349C135.094 97.8955 137.533 93.1133 142.411 90.002C147.328 86.8906 154.396 84.9508 163.614 84.1826C164.882 84.0674 166.783 83.9137 169.318 83.7217C171.892 83.4912 173.812 83.3184 175.08 83.2031V77.6143C175.08 73.1585 174.043 69.8551 171.969 67.7041C169.895 65.5531 166.63 64.4775 162.174 64.4775C155.951 64.4775 149.671 66.014 143.333 69.0869C143.141 68.626 142.642 67.3008 141.835 65.1113C141.028 62.8835 140.606 61.7311 140.567 61.6543C143.371 60.0794 146.694 58.8311 150.535 57.9092C154.415 56.9489 158.352 56.4688 162.347 56.4688C170.221 56.4688 175.887 58.1973 179.344 61.6543C182.839 65.0729 184.587 70.9115 184.587 79.1699V121H177.097ZM229.932 64.4775C223.824 64.4775 219.138 66.5902 215.873 70.8154C212.646 75.0023 211.033 81.1673 211.033 89.3105C211.033 105.981 217.313 114.316 229.874 114.316C232.985 114.316 235.713 113.683 238.056 112.415C240.437 111.109 242.3 109.304 243.645 106.999C245.027 104.656 246.045 102.025 246.698 99.1055C247.39 96.1862 247.735 92.9404 247.735 89.3682C247.735 84.5283 247.159 80.3031 246.007 76.6924C244.893 73.0817 242.972 70.1432 240.245 67.877C237.518 65.6107 234.08 64.4775 229.932 64.4775ZM230.911 56.4688C236.519 56.4688 241.359 57.89 245.431 60.7324C249.502 63.5749 252.556 67.4352 254.592 72.3135C256.628 77.1917 257.646 82.7806 257.646 89.0801C257.646 95.61 256.628 101.353 254.592 106.308C252.594 111.263 249.541 115.181 245.431 118.062C241.359 120.904 236.481 122.325 230.796 122.325C226.609 122.325 222.787 121.423 219.33 119.617C215.873 117.812 212.992 115.354 210.688 112.242L209.708 121H201.469V33.249L211.091 32.6729V53.5879C211.091 58.735 211.014 63.1523 210.86 66.8398C213.088 63.6517 215.969 61.1357 219.503 59.292C223.075 57.4098 226.878 56.4688 230.911 56.4688ZM288.24 122.152C282.094 122.152 277.735 120.501 275.161 117.197C272.626 113.894 271.358 108.151 271.358 99.9697V33.249L280.923 32.6729V96.167C280.923 98.779 280.942 100.872 280.98 102.447C281.057 104.022 281.211 105.578 281.441 107.114C281.672 108.612 281.979 109.745 282.363 110.514C282.747 111.282 283.304 111.993 284.034 112.646C284.764 113.26 285.628 113.683 286.627 113.913C287.664 114.105 288.932 114.201 290.43 114.201C291.659 114.201 294.079 113.971 297.689 113.51L298.208 121.173C294.252 121.826 290.929 122.152 288.24 122.152ZM340.499 69.4902C337.695 66.11 333.835 64.4199 328.918 64.4199C324.001 64.4199 319.987 66.1676 316.876 69.6631C313.765 73.1201 311.94 77.8639 311.402 83.8945H344.763C344.763 77.6335 343.341 72.832 340.499 69.4902ZM330.819 122.325C321.639 122.325 314.398 119.406 309.098 113.567C303.835 107.729 301.204 99.7393 301.204 89.5986C301.204 79.8037 303.758 71.8717 308.867 65.8027C313.976 59.6953 320.698 56.584 329.033 56.4688C336.869 56.4688 343.073 59.1576 347.644 64.5352C352.253 69.8743 354.558 77.0189 354.558 85.9688C354.558 86.4297 354.538 87.2747 354.5 88.5039C354.5 89.7331 354.5 90.6165 354.5 91.1543H311.114C311.229 98.3372 313.073 103.945 316.646 107.979C320.256 111.973 325.096 113.971 331.165 113.971C337.849 113.971 344.551 112.204 351.273 108.67L352.771 116.448C346.357 120.366 339.039 122.325 330.819 122.325ZM386.766 122.325C382.464 122.325 378.488 121.864 374.839 120.942C371.228 120.021 368.29 118.83 366.023 117.37L367.233 109.246C373.648 112.665 379.948 114.374 386.132 114.374C395.504 114.374 400.325 111.071 400.594 104.464C400.594 101.66 399.595 99.4512 397.598 97.8379C395.6 96.2246 391.682 94.4193 385.844 92.4219L381.062 90.751C375.53 88.9072 371.574 86.6217 369.192 83.8945C366.849 81.1673 365.659 77.7679 365.62 73.6963C365.62 68.7412 367.598 64.6312 371.555 61.3662C375.549 58.1012 381.004 56.4688 387.918 56.4688C395.062 56.4688 401.573 57.8516 407.45 60.6172L404.627 67.9922C398.673 65.5339 393.104 64.3047 387.918 64.3047C383.885 64.3047 380.716 65.1113 378.411 66.7246C376.145 68.2995 375.012 70.5273 375.012 73.4082C375.012 75.8665 375.838 77.7487 377.489 79.0547C379.141 80.3607 382.444 81.8587 387.399 83.5488C388.667 84.0098 390.261 84.5475 392.182 85.1621C398.558 87.2363 403.071 89.6947 405.722 92.5371C408.372 95.3411 409.697 99.1439 409.697 103.945C409.62 109.784 407.527 114.316 403.417 117.543C399.307 120.731 393.757 122.325 386.766 122.325Z" fill="#18191C"/>
<path d="M21.3699 64.5674C37.462 27.4058 53.0301 17.3198 80 11C68.5962 30.048 68.8912 34.7189 66.0506 40.29C64.2821 43.7582 59.8614 47.5475 53.4825 48.6354C49.8498 49.3294 43.7011 49.0057 35.2372 48.6354C32.4264 52.6184 30.8619 55.2466 28.5813 60.0696C33.987 60.0696 40.1377 61.3899 45.5273 60.9637C53.3023 60.3489 54.5603 60.5176 59.9515 57.6852C58.8927 61.5498 58.4528 61.3434 56.1343 64.5674C51.1633 70.3681 47.9807 72.6152 41.7088 75.1075C34.746 77.5399 30.3952 78.1708 21.3699 77.2209C15.0236 91.1262 11.7691 102.672 6.36096 129C4.69065 125.29 3.99393 122.101 7.63254 106.809C11.2658 91.5396 13.1886 83.4605 21.3699 64.5674Z" fill="url(#paint0_linear_5_133)"/>
<path d="M27.049 128.771C26.289 127.872 25.5037 126.592 24.693 124.933C23.895 123.274 23.2173 121.342 22.66 119.138C22.1027 116.921 21.824 114.534 21.824 111.975C21.824 109.999 21.995 108.112 22.337 106.313C22.679 104.514 23.1223 102.855 23.667 101.335C24.2117 99.8023 24.8007 98.4533 25.434 97.288C26.0673 96.11 26.6753 95.1663 27.258 94.457L29.785 95.711C29.1517 96.4963 28.493 97.668 27.809 99.226C27.1377 100.784 26.5677 102.646 26.099 104.812C25.6303 106.978 25.396 109.366 25.396 111.975C25.396 114.432 25.6113 116.693 26.042 118.758C26.4853 120.81 27.0237 122.583 27.657 124.078C28.303 125.573 28.9173 126.706 29.5 127.479L27.049 128.771ZM33.3009 129.36C32.3636 129.36 31.5846 129.259 30.9639 129.056C30.3432 128.866 29.8809 128.67 29.5769 128.467L30.9829 125.408C31.1602 125.547 31.3629 125.661 31.5909 125.75C31.8062 125.839 32.1102 125.883 32.5029 125.883C32.9969 125.883 33.3832 125.731 33.6619 125.427C33.9406 125.136 34.1369 124.718 34.2509 124.173C34.3649 123.641 34.4219 123.001 34.4219 122.254V105.401H38.4879V123.09C38.4879 124.319 38.3169 125.402 37.9749 126.339C37.6329 127.289 37.0819 128.03 36.3219 128.562C35.5619 129.094 34.5549 129.36 33.3009 129.36ZM36.5309 100.727C35.8342 100.727 35.2389 100.48 34.7449 99.986C34.2636 99.492 34.0229 98.903 34.0229 98.219C34.0229 97.763 34.1369 97.345 34.3649 96.965C34.5929 96.585 34.8969 96.281 35.2769 96.053C35.6569 95.8123 36.0749 95.692 36.5309 95.692C36.9996 95.692 37.4239 95.8123 37.8039 96.053C38.1839 96.281 38.4816 96.585 38.6969 96.965C38.9249 97.345 39.0389 97.763 39.0389 98.219C39.0389 98.903 38.7919 99.492 38.2979 99.986C37.8166 100.48 37.2276 100.727 36.5309 100.727ZM49.3387 104.945C50.2127 104.945 51.0233 105.027 51.7707 105.192C52.518 105.357 53.1577 105.553 53.6897 105.781C54.2217 106.009 54.589 106.199 54.7917 106.351L53.3097 108.859C53.0563 108.644 52.6003 108.397 51.9417 108.118C51.2957 107.839 50.5673 107.7 49.7567 107.7C48.946 107.7 48.262 107.846 47.7047 108.137C47.1473 108.428 46.8687 108.865 46.8687 109.448C46.8687 110.018 47.16 110.474 47.7427 110.816C48.338 111.158 49.1423 111.443 50.1557 111.671C50.9917 111.861 51.7897 112.127 52.5497 112.469C53.3097 112.798 53.9303 113.273 54.4117 113.894C54.9057 114.502 55.1527 115.319 55.1527 116.345C55.1527 117.32 54.9437 118.137 54.5257 118.796C54.1203 119.442 53.5757 119.961 52.8917 120.354C52.2077 120.747 51.4477 121.025 50.6117 121.19C49.7883 121.367 48.9587 121.456 48.1227 121.456C47.0967 121.456 46.1783 121.355 45.3677 121.152C44.5697 120.949 43.9047 120.715 43.3727 120.449C42.8407 120.17 42.4607 119.936 42.2327 119.746L43.7147 116.934C44.044 117.251 44.5823 117.586 45.3297 117.941C46.077 118.283 46.913 118.454 47.8377 118.454C48.8257 118.454 49.6173 118.264 50.2127 117.884C50.808 117.504 51.1057 116.997 51.1057 116.364C51.1057 115.895 50.96 115.515 50.6687 115.224C50.39 114.933 50.0037 114.698 49.5097 114.521C49.0157 114.344 48.4647 114.185 47.8567 114.046C47.2867 113.907 46.7103 113.729 46.1277 113.514C45.5577 113.286 45.032 112.995 44.5507 112.64C44.0693 112.273 43.683 111.817 43.3917 111.272C43.1003 110.727 42.9547 110.088 42.9547 109.353C42.9547 108.416 43.2523 107.618 43.8477 106.959C44.443 106.3 45.2283 105.8 46.2037 105.458C47.179 105.116 48.224 104.945 49.3387 104.945ZM60.8957 128.771L58.4257 127.479C59.0211 126.706 59.6354 125.573 60.2687 124.078C60.9147 122.583 61.4531 120.81 61.8837 118.758C62.3271 116.693 62.5487 114.432 62.5487 111.975C62.5487 109.366 62.3144 106.978 61.8457 104.812C61.3771 102.646 60.8007 100.784 60.1167 99.226C59.4327 97.668 58.7804 96.4963 58.1597 95.711L60.6677 94.457C61.2631 95.1663 61.8711 96.11 62.4917 97.288C63.1251 98.4533 63.7141 99.8023 64.2587 101.335C64.8161 102.855 65.2657 104.514 65.6077 106.313C65.9497 108.112 66.1207 109.999 66.1207 111.975C66.1207 114.534 65.8357 116.921 65.2657 119.138C64.7084 121.342 64.0244 123.274 63.2137 124.933C62.4157 126.592 61.6431 127.872 60.8957 128.771Z" fill="#EF7D89"/>
<defs>
<linearGradient id="paint0_linear_5_133" x1="80" y1="11" x2="4.38169" y2="128.602" gradientUnits="userSpaceOnUse">
<stop stop-color="#FECE52"/>
<stop offset="1" stop-color="#ECC050"/>
</linearGradient>
</defs>
</svg>
