<svg width="654" height="150" viewBox="0 0 654 150" fill="none" xmlns="http://www.w3.org/2000/svg">
<path d="M43.6158 24L18 120M59.86 24L105 50.0955L43.772 79.5124M98.4399 67.1763L41.8977 94.5371L98.4399 120" stroke="url(#paint0_linear_23_19)" stroke-width="10" stroke-linecap="round" stroke-linejoin="round"/>
<path d="M147.25 24.3H182.413C187.681 24.3 192.442 25.4117 196.695 27.635C200.997 29.81 204.404 33 206.918 37.205C209.431 41.41 210.688 46.5092 210.688 52.5025C210.688 58.4475 209.552 63.3533 207.28 67.22C205.008 71.0867 202.278 73.9867 199.088 75.92C195.898 77.8533 192.925 78.9408 190.17 79.1825L213.733 120H196.55L174.8 80.3425H162.475V120H147.25V24.3ZM162.475 69.3225H176.975C182.098 69.3225 186.4 68.0417 189.88 65.48C193.36 62.9183 195.1 58.7375 195.1 52.9375C195.1 47.0892 193.384 42.9325 189.953 40.4675C186.521 38.0025 182.243 36.77 177.12 36.77H162.475V69.3225ZM239.822 93.9C239.919 97.0417 240.668 99.8692 242.07 102.382C243.471 104.896 245.526 106.877 248.232 108.327C250.987 109.729 254.346 110.43 258.31 110.43C261.741 110.43 264.69 109.971 267.155 109.052C269.668 108.086 271.746 106.95 273.39 105.645C275.033 104.292 276.241 103.035 277.015 101.875L283.902 111.227C282.404 113.257 280.519 115.07 278.247 116.665C275.976 118.26 273.148 119.492 269.765 120.363C266.43 121.281 262.297 121.74 257.367 121.74C250.891 121.74 245.26 120.411 240.475 117.752C235.69 115.094 231.968 111.348 229.31 106.515C226.7 101.682 225.395 96.0267 225.395 89.55C225.395 83.75 226.603 78.53 229.02 73.89C231.436 69.2017 234.941 65.5042 239.532 62.7975C244.172 60.0908 249.731 58.7375 256.207 58.7375C262.249 58.7375 267.493 59.9458 271.94 62.3625C276.386 64.7792 279.818 68.2592 282.235 72.8025C284.7 77.2975 285.932 82.735 285.932 89.115C285.932 89.5017 285.908 90.2992 285.86 91.5075C285.86 92.7158 285.811 93.5133 285.715 93.9H239.822ZM271.432 82.59C271.384 81.0433 270.852 79.2792 269.837 77.2975C268.871 75.3158 267.3 73.6 265.125 72.15C262.95 70.6517 260.05 69.9025 256.425 69.9025C252.703 69.9025 249.682 70.6275 247.362 72.0775C245.042 73.4792 243.326 75.1708 242.215 77.1525C241.103 79.0858 240.451 80.8983 240.257 82.59H271.432ZM330.726 22.56C336.333 22.56 341.19 23.2125 345.298 24.5175C349.455 25.7742 352.742 27.1275 355.158 28.5775C357.575 29.9792 359.025 30.8975 359.508 31.3325L351.896 43.73C351.171 43.1017 349.866 42.2317 347.981 41.12C346.144 39.96 343.873 38.9208 341.166 38.0025C338.508 37.0842 335.535 36.625 332.248 36.625C327.318 36.625 323.403 37.5917 320.503 39.525C317.603 41.41 316.153 44.165 316.153 47.79C316.153 50.2067 316.927 52.3333 318.473 54.17C320.02 56.0067 322.219 57.7225 325.071 59.3175C327.971 60.9125 331.427 62.5317 335.438 64.175C338.822 65.5767 342.108 67.1717 345.298 68.96C348.537 70.7483 351.437 72.8508 353.998 75.2675C356.56 77.6842 358.59 80.4875 360.088 83.6775C361.635 86.8675 362.408 90.5408 362.408 94.6975C362.408 99.0475 361.514 102.914 359.726 106.297C357.938 109.632 355.473 112.46 352.331 114.78C349.189 117.052 345.564 118.792 341.456 120C337.396 121.16 333.046 121.74 328.406 121.74C322.316 121.74 316.83 121.015 311.948 119.565C307.115 118.067 303.2 116.52 300.203 114.925C297.207 113.282 295.467 112.218 294.983 111.735L303.031 98.7575C303.611 99.2408 304.674 99.9658 306.221 100.932C307.816 101.851 309.773 102.842 312.093 103.905C314.413 104.92 316.975 105.79 319.778 106.515C322.63 107.192 325.578 107.53 328.623 107.53C334.472 107.53 338.894 106.273 341.891 103.76C344.888 101.198 346.386 97.9117 346.386 93.9C346.386 90.855 345.419 88.2208 343.486 85.9975C341.601 83.7258 338.991 81.6717 335.656 79.835C332.369 77.9983 328.623 76.1858 324.418 74.3975C320.117 72.5125 316.129 70.3858 312.456 68.0175C308.831 65.6492 305.907 62.7733 303.683 59.39C301.46 55.9583 300.348 51.8017 300.348 46.92C300.348 42.0383 301.726 37.785 304.481 34.16C307.284 30.4867 310.982 27.635 315.573 25.605C320.165 23.575 325.216 22.56 330.726 22.56ZM413.243 58.7375C417.207 58.7375 421.073 59.5592 424.843 61.2025C428.613 62.8458 431.707 65.48 434.123 69.105C436.588 72.6817 437.821 77.3458 437.821 83.0975V120H422.233V85.925C422.233 80.56 421.001 76.6208 418.536 74.1075C416.119 71.5458 412.905 70.265 408.893 70.265C406.235 70.265 403.673 71.0142 401.208 72.5125C398.743 74.0108 396.713 76.0408 395.118 78.6025C393.572 81.1642 392.798 84.1125 392.798 87.4475V120H377.211V20.24H392.798V70.4825C393.233 68.8392 394.393 67.1233 396.278 65.335C398.212 63.4983 400.653 61.9517 403.601 60.695C406.549 59.39 409.763 58.7375 413.243 58.7375ZM464.402 93.9C464.499 97.0417 465.248 99.8692 466.65 102.382C468.052 104.896 470.106 106.877 472.812 108.327C475.567 109.729 478.927 110.43 482.89 110.43C486.322 110.43 489.27 109.971 491.735 109.052C494.248 108.086 496.327 106.95 497.97 105.645C499.613 104.292 500.822 103.035 501.595 101.875L508.482 111.227C506.984 113.257 505.099 115.07 502.827 116.665C500.556 118.26 497.728 119.492 494.345 120.363C491.01 121.281 486.877 121.74 481.947 121.74C475.471 121.74 469.84 120.411 465.055 117.752C460.27 115.094 456.548 111.348 453.89 106.515C451.28 101.682 449.975 96.0267 449.975 89.55C449.975 83.75 451.183 78.53 453.6 73.89C456.017 69.2017 459.521 65.5042 464.112 62.7975C468.752 60.0908 474.311 58.7375 480.787 58.7375C486.829 58.7375 492.073 59.9458 496.52 62.3625C500.967 64.7792 504.398 68.2592 506.815 72.8025C509.28 77.2975 510.512 82.735 510.512 89.115C510.512 89.5017 510.488 90.2992 510.44 91.5075C510.44 92.7158 510.392 93.5133 510.295 93.9H464.402ZM496.012 82.59C495.964 81.0433 495.432 79.2792 494.417 77.2975C493.451 75.3158 491.88 73.6 489.705 72.15C487.53 70.6517 484.63 69.9025 481.005 69.9025C477.283 69.9025 474.262 70.6275 471.942 72.0775C469.622 73.4792 467.907 75.1708 466.795 77.1525C465.683 79.0858 465.031 80.8983 464.837 82.59H496.012ZM534.354 93.9C534.45 97.0417 535.199 99.8692 536.601 102.382C538.003 104.896 540.057 106.877 542.764 108.327C545.519 109.729 548.878 110.43 552.841 110.43C556.273 110.43 559.221 109.971 561.686 109.052C564.199 108.086 566.278 106.95 567.921 105.645C569.564 104.292 570.773 103.035 571.546 101.875L578.434 111.227C576.935 113.257 575.05 115.07 572.779 116.665C570.507 118.26 567.679 119.492 564.296 120.363C560.961 121.281 556.829 121.74 551.899 121.74C545.422 121.74 539.791 120.411 535.006 117.752C530.221 115.094 526.499 111.348 523.841 106.515C521.231 101.682 519.926 96.0267 519.926 89.55C519.926 83.75 521.134 78.53 523.551 73.89C525.968 69.2017 529.472 65.5042 534.064 62.7975C538.704 60.0908 544.262 58.7375 550.739 58.7375C556.78 58.7375 562.024 59.9458 566.471 62.3625C570.918 64.7792 574.349 68.2592 576.766 72.8025C579.231 77.2975 580.464 82.735 580.464 89.115C580.464 89.5017 580.439 90.2992 580.391 91.5075C580.391 92.7158 580.343 93.5133 580.246 93.9H534.354ZM565.964 82.59C565.915 81.0433 565.384 79.2792 564.369 77.2975C563.402 75.3158 561.831 73.6 559.656 72.15C557.481 70.6517 554.581 69.9025 550.956 69.9025C547.234 69.9025 544.214 70.6275 541.894 72.0775C539.574 73.4792 537.858 75.1708 536.746 77.1525C535.634 79.0858 534.982 80.8983 534.789 82.59H565.964ZM588.572 60.4775H599.737V36.045H615.107V60.4775H629.825V73.5275H615.107V98.975C615.107 102.165 615.639 104.557 616.702 106.152C617.814 107.747 619.385 108.545 621.415 108.545C623.106 108.545 624.436 108.231 625.402 107.602C626.417 106.974 627.021 106.539 627.215 106.297L632.942 117.535C632.652 117.825 631.806 118.308 630.405 118.985C629.003 119.662 627.191 120.29 624.967 120.87C622.744 121.45 620.206 121.74 617.355 121.74C612.328 121.74 608.123 120.242 604.74 117.245C601.405 114.248 599.737 109.56 599.737 103.18V73.5275H588.572V60.4775Z" fill="black"/>
<defs>
<linearGradient id="paint0_linear_23_19" x1="30.4955" y1="24" x2="62.206" y2="119.766" gradientUnits="userSpaceOnUse">
<stop stop-color="#EBA900"/>
<stop offset="1" stop-color="#FFC52E"/>
</linearGradient>
</defs>
</svg>
