<svg width="512" height="512" viewBox="0 0 512 512" fill="none" xmlns="http://www.w3.org/2000/svg">
<rect width="512" height="512" rx="41" fill="white"/>
<path d="M177.332 232.289C237.624 94.0351 295.953 56.5117 397 33C354.274 103.865 355.379 121.242 344.736 141.969C338.11 154.872 321.548 168.969 297.648 173.016C284.037 175.598 261 174.394 229.289 173.016C218.758 187.834 212.896 197.612 204.351 215.555C224.605 215.555 247.649 220.468 267.842 218.882C296.973 216.595 301.686 217.222 321.885 206.685C317.918 221.062 316.27 220.294 307.583 232.289C288.959 253.87 277.034 262.229 253.536 271.501C227.448 280.551 211.147 282.898 177.332 279.364C153.555 331.097 141.361 374.05 121.099 472C114.841 458.198 112.231 446.332 125.863 389.442C139.476 332.635 146.68 302.578 177.332 232.289Z" fill="url(#paint0_linear_5_129)"/>
<path d="M200.898 474.653C197.998 471.221 195.001 466.339 191.908 460.008C188.863 453.676 186.277 446.305 184.15 437.895C182.023 429.437 180.96 420.326 180.96 410.562C180.96 403.022 181.613 395.821 182.918 388.957C184.223 382.094 185.914 375.762 187.993 369.962C190.071 364.114 192.318 358.967 194.735 354.52C197.152 350.025 199.472 346.424 201.695 343.717L211.338 348.502C208.921 351.499 206.408 355.97 203.798 361.915C201.236 367.86 199.061 374.965 197.273 383.23C195.484 391.495 194.59 400.606 194.59 410.562C194.59 419.939 195.412 428.567 197.055 436.445C198.747 444.275 200.801 451.042 203.218 456.745C205.683 462.448 208.027 466.774 210.25 469.723L200.898 474.653ZM224.753 476.9C221.177 476.9 218.204 476.513 215.836 475.74C213.468 475.015 211.703 474.266 210.543 473.493L215.908 461.82C216.585 462.352 217.358 462.787 218.228 463.125C219.05 463.463 220.21 463.632 221.708 463.632C223.593 463.632 225.068 463.053 226.131 461.893C227.194 460.781 227.943 459.186 228.378 457.108C228.813 455.078 229.031 452.637 229.031 449.785V385.477H244.546V452.975C244.546 457.663 243.893 461.796 242.588 465.373C241.283 468.998 239.181 471.825 236.281 473.855C233.381 475.885 229.538 476.9 224.753 476.9ZM237.078 367.642C234.42 367.642 232.148 366.7 230.263 364.815C228.427 362.93 227.508 360.682 227.508 358.072C227.508 356.332 227.943 354.737 228.813 353.287C229.683 351.837 230.843 350.677 232.293 349.807C233.743 348.889 235.338 348.43 237.078 348.43C238.867 348.43 240.486 348.889 241.936 349.807C243.386 350.677 244.522 351.837 245.343 353.287C246.213 354.737 246.648 356.332 246.648 358.072C246.648 360.682 245.706 362.93 243.821 364.815C241.984 366.7 239.737 367.642 237.078 367.642ZM285.95 383.737C289.285 383.737 292.379 384.052 295.23 384.68C298.082 385.308 300.523 386.057 302.553 386.927C304.583 387.797 305.984 388.522 306.758 389.102L301.103 398.672C300.136 397.851 298.396 396.908 295.883 395.845C293.418 394.782 290.639 394.25 287.545 394.25C284.452 394.25 281.842 394.806 279.715 395.917C277.589 397.029 276.525 398.697 276.525 400.92C276.525 403.095 277.637 404.835 279.86 406.14C282.132 407.445 285.201 408.532 289.068 409.402C292.258 410.127 295.303 411.142 298.203 412.447C301.103 413.704 303.471 415.517 305.308 417.885C307.193 420.205 308.135 423.322 308.135 427.237C308.135 430.959 307.338 434.077 305.743 436.59C304.196 439.055 302.118 441.037 299.508 442.535C296.898 444.033 293.998 445.097 290.808 445.725C287.666 446.402 284.5 446.74 281.31 446.74C277.395 446.74 273.891 446.353 270.798 445.58C267.753 444.807 265.215 443.912 263.185 442.897C261.155 441.834 259.705 440.94 258.835 440.215L264.49 429.485C265.747 430.693 267.801 431.974 270.653 433.327C273.504 434.632 276.694 435.285 280.223 435.285C283.993 435.285 287.014 434.56 289.285 433.11C291.557 431.66 292.693 429.727 292.693 427.31C292.693 425.522 292.137 424.072 291.025 422.96C289.962 421.848 288.488 420.954 286.603 420.277C284.718 419.601 282.615 418.997 280.295 418.465C278.12 417.933 275.921 417.257 273.698 416.435C271.523 415.565 269.517 414.453 267.68 413.1C265.844 411.698 264.369 409.958 263.258 407.88C262.146 405.802 261.59 403.361 261.59 400.557C261.59 396.981 262.726 393.936 264.998 391.422C267.269 388.909 270.266 387 273.988 385.695C277.709 384.39 281.697 383.737 285.95 383.737ZM330.049 474.653L320.624 469.723C322.896 466.774 325.24 462.448 327.657 456.745C330.122 451.042 332.176 444.275 333.819 436.445C335.511 428.567 336.357 419.939 336.357 410.562C336.357 400.606 335.463 391.495 333.674 383.23C331.886 374.965 329.687 367.86 327.077 361.915C324.467 355.97 321.978 351.499 319.609 348.502L329.179 343.717C331.451 346.424 333.771 350.025 336.139 354.52C338.556 358.967 340.804 364.114 342.882 369.962C345.009 375.762 346.724 382.094 348.029 388.957C349.334 395.821 349.987 403.022 349.987 410.562C349.987 420.326 348.899 429.437 346.724 437.895C344.598 446.305 341.988 453.676 338.894 460.008C335.849 466.339 332.901 471.221 330.049 474.653Z" fill="#EF7D89"/>
<defs>
<linearGradient id="paint0_linear_5_129" x1="397" y1="33" x2="116.502" y2="472.321" gradientUnits="userSpaceOnUse">
<stop stop-color="#FECE52"/>
<stop offset="1" stop-color="#ECC050"/>
</linearGradient>
</defs>
</svg>
